<?xml version="1.0" encoding="UTF-8"?>
<!DOCTYPE svg PUBLIC "-//W3C//DTD SVG 1.1//EN" "http://www.w3.org/Graphics/SVG/1.1/DTD/svg11.dtd">
<!-- Creator: CorelDRAW -->
<svg xmlns="http://www.w3.org/2000/svg" xml:space="preserve" width="1.70666in" height="1.70666in" version="1.1" style="shape-rendering:geometricPrecision; text-rendering:geometricPrecision; image-rendering:optimizeQuality; fill-rule:evenodd; clip-rule:evenodd"
viewBox="0 0 1707 1707"
 xmlns:xlink="http://www.w3.org/1999/xlink">
 <defs>
  <style type="text/css">
   <![CDATA[
    .fil0 {fill:black}
   ]]>
  </style>
 </defs>
 <g id="Layer_x0020_1">
  <metadata id="CorelCorpID_0Corel-Layer"/>
  <path class="fil0" d="M546 1071c-68,0 -176,-27 -301,-157 -7,-7 -159,-171 -185,-370 -1,-10 4,-20 14,-23 9,-4 20,-1 26,7 50,65 148,95 251,127 162,49 344,105 328,325 -96,-117 -217,-212 -349,-283 -24,-12 -53,-3 -65,20 -13,23 -4,52 19,65 126,67 240,158 329,269 3,3 5,6 7,9 -19,6 -44,11 -74,11z"/>
  <path class="fil0" d="M751 1200c-9,0 -17,-5 -20,-14 -2,-2 -112,-254 -435,-427 -10,-6 -14,-19 -9,-30 6,-11 20,-15 31,-9 337,181 449,438 454,449 5,11 -1,24 -12,29 -3,1 -6,2 -9,2z"/>
  <path class="fil0" d="M1234 440l0 871c0,177 -132,323 -303,345 2,-6 4,-13 4,-20 0,-25 -20,-46 -46,-48 -44,-2 -91,-15 -120,-50 -33,-39 -35,-102 -30,-150 2,-14 -3,-27 -12,-37 -9,-10 -22,-16 -36,-16l-423 0 0 -362c77,69 173,124 278,124 27,0 61,-5 91,-15 17,23 33,47 48,72 2,3 4,7 6,10l-245 0c-7,0 -13,6 -13,13 0,7 6,13 13,13l258 0c1,2 2,4 3,6 8,18 25,29 44,29 7,0 13,-1 19,-4 14,-5 23,-17 27,-31l259 0c7,0 13,-6 13,-13 0,-7 -6,-13 -13,-13l-259 0c0,-1 -1,-3 -2,-5 -7,-18 -17,-36 -27,-52 -19,-34 -41,-66 -65,-97l353 0c7,0 13,-6 13,-13 0,-7 -6,-13 -13,-13l-351 0c4,-54 -3,-107 -26,-155l377 0c7,0 13,-5 13,-12 0,-7 -6,-13 -13,-13l-391 0c-8,-11 -16,-22 -25,-33 -56,-61 -138,-94 -215,-120 -22,-7 -45,-14 -67,-21 -26,-8 -58,-17 -90,-29l0 -205c0,-192 156,-348 348,-348l687 0 71 0c-75,37 -128,109 -138,195 -1,9 -2,19 -2,28l0 121 0 48zm-178 209c7,0 13,-6 13,-13 0,-7 -6,-12 -13,-12l-497 0c-7,0 -13,5 -13,12 0,7 6,13 13,13l497 0zm0 -180c7,0 13,-6 13,-13 0,-7 -6,-13 -13,-13l-610 0c-7,0 -13,6 -13,13 0,7 6,13 13,13l610 0zm0 -180c7,0 13,-6 13,-13 0,-7 -6,-13 -13,-13l-610 0c-7,0 -13,6 -13,13 0,7 6,13 13,13l610 0z"/>
  <path class="fil0" d="M887 1659c0,0 0,0 0,0l-669 0c-120,0 -218,-98 -218,-218l0 -58c0,-13 10,-23 22,-23l669 0c7,0 13,3 17,8 4,4 6,11 6,17 -8,75 4,132 35,170 28,34 75,54 139,59 12,0 21,10 21,22 0,13 -10,23 -22,23z"/>
  <path class="fil0" d="M1684 415l-401 0c-13,0 -23,-10 -23,-23l0 -121c0,-123 100,-223 223,-223 124,0 224,100 224,223l0 121c0,13 -10,23 -23,23z"/>
 </g>
</svg>
