<?xml version="1.0" encoding="UTF-8"?>
<!DOCTYPE svg PUBLIC "-//W3C//DTD SVG 1.1//EN" "http://www.w3.org/Graphics/SVG/1.1/DTD/svg11.dtd">
<!-- Creator: CorelDRAW -->
<svg xmlns="http://www.w3.org/2000/svg" xml:space="preserve" width="1.70666in" height="1.70666in" version="1.1" style="shape-rendering:geometricPrecision; text-rendering:geometricPrecision; image-rendering:optimizeQuality; fill-rule:evenodd; clip-rule:evenodd"
viewBox="0 0 1707 1707"
 xmlns:xlink="http://www.w3.org/1999/xlink">
 <defs>
  <style type="text/css">
   <![CDATA[
    .fil0 {fill:black}
   ]]>
  </style>
 </defs>
 <g id="Layer_x0020_1">
  <metadata id="CorelCorpID_0Corel-Layer"/>
  <path class="fil0" d="M1582 1511l-1457 0c-69,0 -125,-56 -125,-125l0 -266c0,-14 2,-26 6,-39l95 -285c17,-52 63,-86 118,-86l1269 0c54,0 101,34 118,86l94 285c5,13 7,25 7,39l0 266c0,69 -56,125 -125,125zm-304 -563c8,0 14,-6 14,-13 0,-8 -6,-14 -14,-14l-77 0c-7,0 -13,6 -13,14 0,7 6,13 13,13l77 0zm-193 0c8,0 14,-6 14,-13 0,-8 -6,-14 -14,-14l-77 0c-7,0 -13,6 -13,14 0,7 6,13 13,13l77 0zm-193 0c7,0 13,-6 13,-13 0,-8 -6,-14 -13,-14l-77 0c-8,0 -14,6 -14,14 0,7 6,13 14,13l77 0zm-193 0c7,0 13,-6 13,-13 0,-8 -6,-14 -13,-14l-78 0c-7,0 -13,6 -13,14 0,7 6,13 13,13l78 0zm-193 0c7,0 13,-6 13,-13 0,-8 -6,-14 -13,-14l-78 0c-7,0 -13,6 -13,14 0,7 6,13 13,13l78 0zm772 88c8,0 14,-6 14,-13 0,-8 -6,-14 -14,-14l-77 0c-7,0 -13,6 -13,14 0,7 6,13 13,13l77 0zm-193 0c8,0 14,-6 14,-13 0,-8 -6,-14 -14,-14l-77 0c-7,0 -13,6 -13,14 0,7 6,13 13,13l77 0zm-193 0c7,0 13,-6 13,-13 0,-8 -6,-14 -13,-14l-77 0c-8,0 -14,6 -14,14 0,7 6,13 14,13l77 0zm-193 0c7,0 13,-6 13,-13 0,-8 -6,-14 -13,-14l-78 0c-7,0 -13,6 -13,14 0,7 6,13 13,13l78 0zm-193 0c7,0 13,-6 13,-13 0,-8 -6,-14 -13,-14l-78 0c-7,0 -13,6 -13,14 0,7 6,13 13,13l78 0zm966 88c7,0 13,-6 13,-14 0,-7 -6,-13 -13,-13l-78 0c-7,0 -13,6 -13,13 0,8 6,14 13,14l78 0zm-194 0c8,0 14,-6 14,-14 0,-7 -6,-13 -14,-13l-77 0c-7,0 -13,6 -13,13 0,8 6,14 13,14l77 0zm-193 0c8,0 14,-6 14,-14 0,-7 -6,-13 -14,-13l-77 0c-7,0 -13,6 -13,13 0,8 6,14 13,14l77 0zm-193 0c7,0 13,-6 13,-14 0,-7 -6,-13 -13,-13l-77 0c-8,0 -14,6 -14,13 0,8 6,14 14,14l77 0zm-193 0c7,0 13,-6 13,-14 0,-7 -6,-13 -13,-13l-78 0c-7,0 -13,6 -13,13 0,8 6,14 13,14l78 0zm-193 0c7,0 13,-6 13,-14 0,-7 -6,-13 -13,-13l-78 0c-7,0 -13,6 -13,13 0,8 6,14 13,14l78 0zm-194 0c8,0 14,-6 14,-14 0,-7 -6,-13 -14,-13l-77 0c-7,0 -13,6 -13,13 0,8 6,14 13,14l77 0zm1160 88c7,0 13,-6 13,-14 0,-7 -6,-13 -13,-13l-78 0c-7,0 -13,6 -13,13 0,8 6,14 13,14l78 0zm-194 0c8,0 14,-6 14,-14 0,-7 -6,-13 -14,-13l-77 0c-7,0 -13,6 -13,13 0,8 6,14 13,14l77 0zm-193 0c8,0 14,-6 14,-14 0,-7 -6,-13 -14,-13l-77 0c-7,0 -13,6 -13,13 0,8 6,14 13,14l77 0zm-193 0c7,0 13,-6 13,-14 0,-7 -6,-13 -13,-13l-77 0c-8,0 -14,6 -14,13 0,8 6,14 14,14l77 0zm-193 0c7,0 13,-6 13,-14 0,-7 -6,-13 -13,-13l-78 0c-7,0 -13,6 -13,13 0,8 6,14 13,14l78 0zm-193 0c7,0 13,-6 13,-14 0,-7 -6,-13 -13,-13l-78 0c-7,0 -13,6 -13,13 0,8 6,14 13,14l78 0zm-194 0c8,0 14,-6 14,-14 0,-7 -6,-13 -14,-13l-77 0c-7,0 -13,6 -13,13 0,8 6,14 13,14l77 0zm1160 87c7,0 13,-6 13,-13 0,-7 -6,-13 -13,-13l-78 0c-7,0 -13,6 -13,13 0,7 6,13 13,13l78 0zm-194 0c8,0 14,-6 14,-13 0,-7 -6,-13 -14,-13l-77 0c-7,0 -13,6 -13,13 0,7 6,13 13,13l77 0zm-193 0c8,0 14,-6 14,-13 0,-7 -6,-13 -14,-13l-464 0c-7,0 -13,6 -13,13 0,7 6,13 13,13l464 0zm-579 0c7,0 13,-6 13,-13 0,-7 -6,-13 -13,-13l-78 0c-7,0 -13,6 -13,13 0,7 6,13 13,13l78 0zm-194 0c8,0 14,-6 14,-13 0,-7 -6,-13 -14,-13l-77 0c-7,0 -13,6 -13,13 0,7 6,13 13,13l77 0zm1253 84c8,0 14,-6 14,-14l0 -246c0,-1 -1,-3 -1,-4l-90 -272c-2,-5 -7,-9 -13,-9l-1244 0c-6,0 -11,4 -12,9l-90 272c-1,1 -1,3 -1,4l0 246c0,8 6,14 13,14l1424 0zm-1410 -27l0 -231 86 -260 1225 0 86 260 0 231 -1397 0z"/>
  <path class="fil0" d="M369 1613l-165 0c-28,0 -50,-22 -50,-49l0 -27 265 0 0 27c0,27 -23,49 -50,49z"/>
  <path class="fil0" d="M1503 1613l-165 0c-28,0 -50,-22 -50,-49l0 -27 264 0 0 27c0,27 -22,49 -49,49z"/>
  <path class="fil0" d="M196 684l0 -71c0,-27 21,-48 48,-48l1219 0c26,0 48,21 48,48l0 71 -1315 0z"/>
  <path class="fil0" d="M333 538l0 -377c0,-37 30,-68 67,-68l906 0c38,0 68,31 68,68l0 377 -1041 0zm926 -91c7,0 13,-6 13,-14 0,-7 -6,-13 -13,-13l-811 0c-8,0 -14,6 -14,13 0,8 6,14 14,14l811 0zm0 -118c7,0 13,-6 13,-13 0,-8 -6,-14 -13,-14l-811 0c-8,0 -14,6 -14,14 0,7 6,13 14,13l811 0zm0 -118c7,0 13,-6 13,-13 0,-7 -6,-13 -13,-13l-811 0c-8,0 -14,6 -14,13 0,7 6,13 14,13l811 0z"/>
  <path class="fil0" d="M221 538l0 -32c0,-43 35,-79 79,-79l6 0 0 111 -85 0z"/>
  <path class="fil0" d="M1400 427l6 0c44,0 80,36 80,79l0 32 -86 0 0 -111z"/>
 </g>
</svg>
